<svg width="32" height="32" viewBox="0 0 32 32" fill="none" xmlns="http://www.w3.org/2000/svg">
<path d="M12.4444 0H1.77778C1.30628 0 0.854097 0.187301 0.520699 0.520699C0.187301 0.854097 0 1.30628 0 1.77778V12.4444C0 12.9159 0.187301 13.3681 0.520699 13.7015C0.854097 14.0349 1.30628 14.2222 1.77778 14.2222H12.4444C12.9159 14.2222 13.3681 14.0349 13.7015 13.7015C14.0349 13.3681 14.2222 12.9159 14.2222 12.4444V1.77778C14.2222 1.30628 14.0349 0.854097 13.7015 0.520699C13.3681 0.187301 12.9159 0 12.4444 0ZM30.2222 17.7778H19.5556C19.0841 17.7778 18.6319 17.9651 18.2985 18.2985C17.9651 18.6319 17.7778 19.0841 17.7778 19.5556V30.2222C17.7778 30.6937 17.9651 31.1459 18.2985 31.4793C18.6319 31.8127 19.0841 32 19.5556 32H30.2222C30.6937 32 31.1459 31.8127 31.4793 31.4793C31.8127 31.1459 32 30.6937 32 30.2222V19.5556C32 19.0841 31.8127 18.6319 31.4793 18.2985C31.1459 17.9651 30.6937 17.7778 30.2222 17.7778ZM24.8889 0C20.9671 0 17.7778 3.18933 17.7778 7.11111C17.7778 11.0329 20.9671 14.2222 24.8889 14.2222C28.8107 14.2222 32 11.0329 32 7.11111C32 3.18933 28.8107 0 24.8889 0ZM7.11111 17.7778C3.18933 17.7778 0 20.9671 0 24.8889C0 28.8107 3.18933 32 7.11111 32C11.0329 32 14.2222 28.8107 14.2222 24.8889C14.2222 20.9671 11.0329 17.7778 7.11111 17.7778Z" fill="#004EFF"/>
</svg>
