<svg xmlns="http://www.w3.org/2000/svg" viewBox="0 0 60 60"><defs><style>.b{fill:#c4c4c4}</style></defs><path d="M60 30A30 30 0 1130 0a30 30 0 0130 30" fill="#e0e0e0"/><path class="b" d="M40.35 27.09a9.82 9.82 0 11-9.81-9.83 9.82 9.82 0 019.81 9.83"/><path d="M29.17 40.85a9.23 9.23 0 002.71 0 11.9 11.9 0 01-1.34.07 12.32 12.32 0 01-1.37-.07z" fill="none"/><path class="b" d="M39.25 37.83a13.77 13.77 0 01-7.37 3 9.23 9.23 0 01-2.71 0 13.66 13.66 0 01-7.35-3 21 21 0 00-11.76 14.54 29.9 29.9 0 0040.76-.8 21 21 0 00-11.57-13.74z"/></svg>