<svg xmlns="http://www.w3.org/2000/svg" viewBox="0 0 56.33 56.33"><defs><style>.b{fill:#34ba08}</style></defs><path d="M56.33 28.17A28.17 28.17 0 1128.17 0a28.16 28.16 0 0128.16 28.17" fill="#6fda44"/><path class="b" d="M37.89 25.43a9.22 9.22 0 11-9.22-9.22 9.23 9.23 0 019.22 9.22"/><path d="M27.38 38.36a10.86 10.86 0 001.28.09 10.69 10.69 0 001.27-.09q-.62.06-1.26.06t-1.29-.06z" fill="none"/><path class="b" d="M36.85 35.52a13 13 0 01-6.92 2.84 10.69 10.69 0 01-1.27.09 10.86 10.86 0 01-1.28-.09 13 13 0 01-6.9-2.85 19.72 19.72 0 00-11 13.66 28.07 28.07 0 0038.26-.75 19.71 19.71 0 00-10.89-12.9z"/></svg>